<?xml version="1.0" standalone="no"?>
<!DOCTYPE svg PUBLIC "-//W3C//DTD SVG 20010904//EN"
 "http://www.w3.org/TR/2001/REC-SVG-20010904/DTD/svg10.dtd">
<svg version="1.0" xmlns="http://www.w3.org/2000/svg"
 width="700.000000pt" height="700.000000pt" viewBox="0 0 700.000000 700.000000"
 preserveAspectRatio="xMidYMid meet">
<metadata>
Created by potrace 1.14, written by Peter Selinger 2001-2017
</metadata>
<g transform="translate(0.000000,700.000000) scale(0.100000,-0.100000)"
fill="#000000" stroke="none">
<path d="M6475 6319 c-154 -93 -290 -175 -303 -182 -12 -7 -296 -176 -630
-377 -334 -201 -615 -369 -625 -375 -14 -8 -308 -184 -664 -398 l-47 -29 -215
0 -216 0 -191 -301 c-266 -419 -598 -941 -720 -1134 l-103 -162 76 -108 c42
-59 103 -148 137 -198 142 -207 780 -1121 792 -1136 13 -14 137 -16 1304 -16
l1291 0 -28 30 c-45 47 -292 298 -629 640 -280 284 -316 317 -331 305 -25 -19
-123 -122 -123 -128 0 -3 123 -127 273 -277 149 -150 294 -295 322 -322 l49
-51 -1011 0 -1012 0 -70 102 c-39 57 -74 108 -78 113 -12 14 -415 600 -433
629 -8 13 -75 111 -149 217 -73 106 -135 198 -138 205 -4 10 76 143 222 369
18 28 168 266 335 530 167 264 309 486 315 493 10 11 56 14 200 14 l187 0 339
201 c186 111 360 215 386 231 27 16 63 38 82 48 82 46 458 272 483 289 15 10
30 19 32 19 3 0 34 17 68 38 110 67 118 70 73 21 -57 -61 -76 -82 -110 -120
-81 -90 -145 -162 -219 -243 -92 -102 -97 -108 -186 -206 -36 -40 -76 -85 -90
-100 -37 -41 -166 -183 -258 -285 -44 -49 -79 -92 -77 -95 2 -3 287 -195 634
-425 l630 -420 1 -267 c0 -248 -1 -268 -17 -269 -10 0 -286 -1 -613 -1 l-595
-1 -194 192 -194 191 -68 -70 -69 -70 108 -111 c59 -61 155 -161 214 -222
l108 -111 737 -1 c406 0 745 1 753 3 14 3 16 52 15 415 l0 411 -589 392 -588
392 98 108 c148 163 161 177 181 200 10 12 56 63 103 114 103 113 108 119 190
211 36 40 70 77 76 83 5 6 52 58 104 116 52 58 111 123 131 145 21 22 46 49
56 61 15 17 140 157 178 198 6 6 48 54 95 106 47 52 104 115 126 140 50 55 79
86 123 136 68 76 125 140 176 194 46 50 71 81 63 79 -2 0 -129 -77 -283 -170z"/>
<path d="M4416 6158 c-18 -29 -41 -69 -51 -88 -10 -19 -26 -46 -35 -60 -10
-14 -104 -171 -210 -350 -106 -179 -206 -347 -222 -374 -16 -26 -28 -49 -26
-50 2 -1 36 -23 75 -49 40 -26 76 -47 80 -47 5 0 56 84 116 187 l107 188 1
-55 c0 -30 1 -103 1 -162 l0 -108 99 0 c54 0 99 3 100 8 2 19 4 1012 1 1012
-1 0 -17 -24 -36 -52z"/>
<path d="M247 4947 c12 -21 165 -261 198 -312 18 -27 207 -324 420 -659 332
-522 386 -612 377 -630 -5 -11 -27 -45 -48 -73 -22 -29 -54 -74 -72 -100 -156
-224 -295 -421 -305 -433 -7 -9 -30 -42 -53 -75 -22 -33 -145 -207 -272 -387
-127 -179 -238 -337 -246 -350 l-16 -25 596 0 c526 0 597 2 611 16 9 8 119
171 245 361 126 190 232 346 236 347 4 1 113 -156 242 -349 129 -193 240 -356
247 -363 9 -9 141 -12 537 -12 289 0 526 1 526 2 0 2 -741 1062 -870 1245
-115 164 -150 216 -149 224 0 6 21 44 47 83 133 206 510 793 722 1125 85 134
157 245 160 248 3 3 15 21 27 41 11 20 28 47 37 61 l17 26 -525 0 -526 0 -32
-57 c-105 -185 -442 -768 -451 -779 -9 -12 -34 26 -165 258 -14 25 -68 119
-120 210 -52 91 -104 181 -115 200 -10 19 -37 65 -58 101 l-39 67 -595 0
c-446 0 -593 -3 -588 -11z"/>
</g>
</svg>
